<mxfile host="app.diagrams.net" modified="2021-05-14T20:06:33.879Z" agent="5.0 (Windows NT 10.0; Win64; x64) AppleWebKit/537.36 (KHTML, like Gecko) Chrome/90.0.4430.212 Safari/537.36" etag="13biMi7W60cMWKol5b6P" version="14.6.9" type="github">
  <diagram id="R2lEEEUBdFMjLlhIrx00" name="Page-1">
    <mxGraphModel dx="1422" dy="743" grid="1" gridSize="10" guides="1" tooltips="1" connect="1" arrows="1" fold="1" page="1" pageScale="1" pageWidth="850" pageHeight="1100" math="0" shadow="0" extFonts="Permanent Marker^https://fonts.googleapis.com/css?family=Permanent+Marker">
      <root>
        <mxCell id="0" />
        <mxCell id="1" parent="0" />
        <mxCell id="NFMaD7DtVsPuEVlDF0jz-237" value="ProductList (Collectibles)" style="shape=table;startSize=30;container=1;collapsible=1;childLayout=tableLayout;fixedRows=1;rowLines=0;fontStyle=1;align=center;resizeLast=1;" vertex="1" parent="1">
          <mxGeometry x="365" y="430" width="180" height="290" as="geometry" />
        </mxCell>
        <mxCell id="NFMaD7DtVsPuEVlDF0jz-238" value="" style="shape=partialRectangle;collapsible=0;dropTarget=0;pointerEvents=0;fillColor=none;top=0;left=0;bottom=1;right=0;points=[[0,0.5],[1,0.5]];portConstraint=eastwest;" vertex="1" parent="NFMaD7DtVsPuEVlDF0jz-237">
          <mxGeometry y="30" width="180" height="30" as="geometry" />
        </mxCell>
        <mxCell id="NFMaD7DtVsPuEVlDF0jz-239" value="PK" style="shape=partialRectangle;connectable=0;fillColor=none;top=0;left=0;bottom=0;right=0;fontStyle=1;overflow=hidden;" vertex="1" parent="NFMaD7DtVsPuEVlDF0jz-238">
          <mxGeometry width="30" height="30" as="geometry" />
        </mxCell>
        <mxCell id="NFMaD7DtVsPuEVlDF0jz-240" value="ProductId" style="shape=partialRectangle;connectable=0;fillColor=none;top=0;left=0;bottom=0;right=0;align=left;spacingLeft=6;fontStyle=5;overflow=hidden;" vertex="1" parent="NFMaD7DtVsPuEVlDF0jz-238">
          <mxGeometry x="30" width="150" height="30" as="geometry" />
        </mxCell>
        <mxCell id="NFMaD7DtVsPuEVlDF0jz-241" value="" style="shape=partialRectangle;collapsible=0;dropTarget=0;pointerEvents=0;fillColor=none;top=0;left=0;bottom=0;right=0;points=[[0,0.5],[1,0.5]];portConstraint=eastwest;" vertex="1" parent="NFMaD7DtVsPuEVlDF0jz-237">
          <mxGeometry y="60" width="180" height="30" as="geometry" />
        </mxCell>
        <mxCell id="NFMaD7DtVsPuEVlDF0jz-242" value="" style="shape=partialRectangle;connectable=0;fillColor=none;top=0;left=0;bottom=0;right=0;editable=1;overflow=hidden;" vertex="1" parent="NFMaD7DtVsPuEVlDF0jz-241">
          <mxGeometry width="30" height="30" as="geometry" />
        </mxCell>
        <mxCell id="NFMaD7DtVsPuEVlDF0jz-243" value="Product Name" style="shape=partialRectangle;connectable=0;fillColor=none;top=0;left=0;bottom=0;right=0;align=left;spacingLeft=6;overflow=hidden;" vertex="1" parent="NFMaD7DtVsPuEVlDF0jz-241">
          <mxGeometry x="30" width="150" height="30" as="geometry" />
        </mxCell>
        <mxCell id="NFMaD7DtVsPuEVlDF0jz-244" value="" style="shape=partialRectangle;collapsible=0;dropTarget=0;pointerEvents=0;fillColor=none;top=0;left=0;bottom=0;right=0;points=[[0,0.5],[1,0.5]];portConstraint=eastwest;" vertex="1" parent="NFMaD7DtVsPuEVlDF0jz-237">
          <mxGeometry y="90" width="180" height="30" as="geometry" />
        </mxCell>
        <mxCell id="NFMaD7DtVsPuEVlDF0jz-245" value="FK" style="shape=partialRectangle;connectable=0;fillColor=none;top=0;left=0;bottom=0;right=0;editable=1;overflow=hidden;" vertex="1" parent="NFMaD7DtVsPuEVlDF0jz-244">
          <mxGeometry width="30" height="30" as="geometry" />
        </mxCell>
        <mxCell id="NFMaD7DtVsPuEVlDF0jz-246" value="CategoryId" style="shape=partialRectangle;connectable=0;fillColor=none;top=0;left=0;bottom=0;right=0;align=left;spacingLeft=6;overflow=hidden;" vertex="1" parent="NFMaD7DtVsPuEVlDF0jz-244">
          <mxGeometry x="30" width="150" height="30" as="geometry" />
        </mxCell>
        <mxCell id="NFMaD7DtVsPuEVlDF0jz-247" value="" style="shape=partialRectangle;collapsible=0;dropTarget=0;pointerEvents=0;fillColor=none;top=0;left=0;bottom=0;right=0;points=[[0,0.5],[1,0.5]];portConstraint=eastwest;" vertex="1" parent="NFMaD7DtVsPuEVlDF0jz-237">
          <mxGeometry y="120" width="180" height="30" as="geometry" />
        </mxCell>
        <mxCell id="NFMaD7DtVsPuEVlDF0jz-248" value="" style="shape=partialRectangle;connectable=0;fillColor=none;top=0;left=0;bottom=0;right=0;editable=1;overflow=hidden;" vertex="1" parent="NFMaD7DtVsPuEVlDF0jz-247">
          <mxGeometry width="30" height="30" as="geometry" />
        </mxCell>
        <mxCell id="NFMaD7DtVsPuEVlDF0jz-249" value="ProductDescription" style="shape=partialRectangle;connectable=0;fillColor=none;top=0;left=0;bottom=0;right=0;align=left;spacingLeft=6;overflow=hidden;" vertex="1" parent="NFMaD7DtVsPuEVlDF0jz-247">
          <mxGeometry x="30" width="150" height="30" as="geometry" />
        </mxCell>
        <mxCell id="NFMaD7DtVsPuEVlDF0jz-250" value="" style="shape=partialRectangle;collapsible=0;dropTarget=0;pointerEvents=0;fillColor=none;top=0;left=0;bottom=0;right=0;points=[[0,0.5],[1,0.5]];portConstraint=eastwest;" vertex="1" parent="NFMaD7DtVsPuEVlDF0jz-237">
          <mxGeometry y="150" width="180" height="30" as="geometry" />
        </mxCell>
        <mxCell id="NFMaD7DtVsPuEVlDF0jz-251" value="" style="shape=partialRectangle;connectable=0;fillColor=none;top=0;left=0;bottom=0;right=0;editable=1;overflow=hidden;" vertex="1" parent="NFMaD7DtVsPuEVlDF0jz-250">
          <mxGeometry width="30" height="30" as="geometry" />
        </mxCell>
        <mxCell id="NFMaD7DtVsPuEVlDF0jz-252" value="ProductPrice" style="shape=partialRectangle;connectable=0;fillColor=none;top=0;left=0;bottom=0;right=0;align=left;spacingLeft=6;overflow=hidden;" vertex="1" parent="NFMaD7DtVsPuEVlDF0jz-250">
          <mxGeometry x="30" width="150" height="30" as="geometry" />
        </mxCell>
        <mxCell id="NFMaD7DtVsPuEVlDF0jz-253" value="" style="shape=partialRectangle;collapsible=0;dropTarget=0;pointerEvents=0;fillColor=none;top=0;left=0;bottom=0;right=0;points=[[0,0.5],[1,0.5]];portConstraint=eastwest;" vertex="1" parent="NFMaD7DtVsPuEVlDF0jz-237">
          <mxGeometry y="180" width="180" height="30" as="geometry" />
        </mxCell>
        <mxCell id="NFMaD7DtVsPuEVlDF0jz-254" value="" style="shape=partialRectangle;connectable=0;fillColor=none;top=0;left=0;bottom=0;right=0;editable=1;overflow=hidden;" vertex="1" parent="NFMaD7DtVsPuEVlDF0jz-253">
          <mxGeometry width="30" height="30" as="geometry" />
        </mxCell>
        <mxCell id="NFMaD7DtVsPuEVlDF0jz-255" value="QuantityOnHand" style="shape=partialRectangle;connectable=0;fillColor=none;top=0;left=0;bottom=0;right=0;align=left;spacingLeft=6;overflow=hidden;" vertex="1" parent="NFMaD7DtVsPuEVlDF0jz-253">
          <mxGeometry x="30" width="150" height="30" as="geometry" />
        </mxCell>
        <mxCell id="NFMaD7DtVsPuEVlDF0jz-256" value="" style="shape=partialRectangle;collapsible=0;dropTarget=0;pointerEvents=0;fillColor=none;top=0;left=0;bottom=0;right=0;points=[[0,0.5],[1,0.5]];portConstraint=eastwest;" vertex="1" parent="NFMaD7DtVsPuEVlDF0jz-237">
          <mxGeometry y="210" width="180" height="30" as="geometry" />
        </mxCell>
        <mxCell id="NFMaD7DtVsPuEVlDF0jz-257" value="" style="shape=partialRectangle;connectable=0;fillColor=none;top=0;left=0;bottom=0;right=0;editable=1;overflow=hidden;" vertex="1" parent="NFMaD7DtVsPuEVlDF0jz-256">
          <mxGeometry width="30" height="30" as="geometry" />
        </mxCell>
        <mxCell id="NFMaD7DtVsPuEVlDF0jz-258" value="ProductAverageRating" style="shape=partialRectangle;connectable=0;fillColor=none;top=0;left=0;bottom=0;right=0;align=left;spacingLeft=6;overflow=hidden;" vertex="1" parent="NFMaD7DtVsPuEVlDF0jz-256">
          <mxGeometry x="30" width="150" height="30" as="geometry" />
        </mxCell>
        <mxCell id="NFMaD7DtVsPuEVlDF0jz-259" value="" style="shape=partialRectangle;collapsible=0;dropTarget=0;pointerEvents=0;fillColor=none;top=0;left=0;bottom=0;right=0;points=[[0,0.5],[1,0.5]];portConstraint=eastwest;" vertex="1" parent="NFMaD7DtVsPuEVlDF0jz-237">
          <mxGeometry y="240" width="180" height="30" as="geometry" />
        </mxCell>
        <mxCell id="NFMaD7DtVsPuEVlDF0jz-260" value="" style="shape=partialRectangle;connectable=0;fillColor=none;top=0;left=0;bottom=0;right=0;editable=1;overflow=hidden;" vertex="1" parent="NFMaD7DtVsPuEVlDF0jz-259">
          <mxGeometry width="30" height="30" as="geometry" />
        </mxCell>
        <mxCell id="NFMaD7DtVsPuEVlDF0jz-261" value="ProductImage" style="shape=partialRectangle;connectable=0;fillColor=none;top=0;left=0;bottom=0;right=0;align=left;spacingLeft=6;overflow=hidden;" vertex="1" parent="NFMaD7DtVsPuEVlDF0jz-259">
          <mxGeometry x="30" width="150" height="30" as="geometry" />
        </mxCell>
        <mxCell id="NFMaD7DtVsPuEVlDF0jz-262" value="Users" style="shape=table;startSize=30;container=1;collapsible=1;childLayout=tableLayout;fixedRows=1;rowLines=0;fontStyle=1;align=center;resizeLast=1;" vertex="1" parent="1">
          <mxGeometry x="65" y="90" width="180" height="160" as="geometry" />
        </mxCell>
        <mxCell id="NFMaD7DtVsPuEVlDF0jz-263" value="" style="shape=partialRectangle;collapsible=0;dropTarget=0;pointerEvents=0;fillColor=none;top=0;left=0;bottom=1;right=0;points=[[0,0.5],[1,0.5]];portConstraint=eastwest;" vertex="1" parent="NFMaD7DtVsPuEVlDF0jz-262">
          <mxGeometry y="30" width="180" height="30" as="geometry" />
        </mxCell>
        <mxCell id="NFMaD7DtVsPuEVlDF0jz-264" value="PK" style="shape=partialRectangle;connectable=0;fillColor=none;top=0;left=0;bottom=0;right=0;fontStyle=1;overflow=hidden;" vertex="1" parent="NFMaD7DtVsPuEVlDF0jz-263">
          <mxGeometry width="30" height="30" as="geometry" />
        </mxCell>
        <mxCell id="NFMaD7DtVsPuEVlDF0jz-265" value="UserId" style="shape=partialRectangle;connectable=0;fillColor=none;top=0;left=0;bottom=0;right=0;align=left;spacingLeft=6;fontStyle=5;overflow=hidden;" vertex="1" parent="NFMaD7DtVsPuEVlDF0jz-263">
          <mxGeometry x="30" width="150" height="30" as="geometry" />
        </mxCell>
        <mxCell id="NFMaD7DtVsPuEVlDF0jz-266" value="" style="shape=partialRectangle;collapsible=0;dropTarget=0;pointerEvents=0;fillColor=none;top=0;left=0;bottom=0;right=0;points=[[0,0.5],[1,0.5]];portConstraint=eastwest;" vertex="1" parent="NFMaD7DtVsPuEVlDF0jz-262">
          <mxGeometry y="60" width="180" height="30" as="geometry" />
        </mxCell>
        <mxCell id="NFMaD7DtVsPuEVlDF0jz-267" value="" style="shape=partialRectangle;connectable=0;fillColor=none;top=0;left=0;bottom=0;right=0;editable=1;overflow=hidden;" vertex="1" parent="NFMaD7DtVsPuEVlDF0jz-266">
          <mxGeometry width="30" height="30" as="geometry" />
        </mxCell>
        <mxCell id="NFMaD7DtVsPuEVlDF0jz-268" value="UserFirstName" style="shape=partialRectangle;connectable=0;fillColor=none;top=0;left=0;bottom=0;right=0;align=left;spacingLeft=6;overflow=hidden;" vertex="1" parent="NFMaD7DtVsPuEVlDF0jz-266">
          <mxGeometry x="30" width="150" height="30" as="geometry" />
        </mxCell>
        <mxCell id="NFMaD7DtVsPuEVlDF0jz-269" value="" style="shape=partialRectangle;collapsible=0;dropTarget=0;pointerEvents=0;fillColor=none;top=0;left=0;bottom=0;right=0;points=[[0,0.5],[1,0.5]];portConstraint=eastwest;" vertex="1" parent="NFMaD7DtVsPuEVlDF0jz-262">
          <mxGeometry y="90" width="180" height="30" as="geometry" />
        </mxCell>
        <mxCell id="NFMaD7DtVsPuEVlDF0jz-270" value="" style="shape=partialRectangle;connectable=0;fillColor=none;top=0;left=0;bottom=0;right=0;editable=1;overflow=hidden;" vertex="1" parent="NFMaD7DtVsPuEVlDF0jz-269">
          <mxGeometry width="30" height="30" as="geometry" />
        </mxCell>
        <mxCell id="NFMaD7DtVsPuEVlDF0jz-271" value="UserLastName" style="shape=partialRectangle;connectable=0;fillColor=none;top=0;left=0;bottom=0;right=0;align=left;spacingLeft=6;overflow=hidden;" vertex="1" parent="NFMaD7DtVsPuEVlDF0jz-269">
          <mxGeometry x="30" width="150" height="30" as="geometry" />
        </mxCell>
        <mxCell id="NFMaD7DtVsPuEVlDF0jz-272" value="" style="shape=partialRectangle;collapsible=0;dropTarget=0;pointerEvents=0;fillColor=none;top=0;left=0;bottom=0;right=0;points=[[0,0.5],[1,0.5]];portConstraint=eastwest;" vertex="1" parent="NFMaD7DtVsPuEVlDF0jz-262">
          <mxGeometry y="120" width="180" height="30" as="geometry" />
        </mxCell>
        <mxCell id="NFMaD7DtVsPuEVlDF0jz-273" value="" style="shape=partialRectangle;connectable=0;fillColor=none;top=0;left=0;bottom=0;right=0;editable=1;overflow=hidden;" vertex="1" parent="NFMaD7DtVsPuEVlDF0jz-272">
          <mxGeometry width="30" height="30" as="geometry" />
        </mxCell>
        <mxCell id="NFMaD7DtVsPuEVlDF0jz-274" value="UserDefaultCurrency" style="shape=partialRectangle;connectable=0;fillColor=none;top=0;left=0;bottom=0;right=0;align=left;spacingLeft=6;overflow=hidden;" vertex="1" parent="NFMaD7DtVsPuEVlDF0jz-272">
          <mxGeometry x="30" width="150" height="30" as="geometry" />
        </mxCell>
        <mxCell id="NFMaD7DtVsPuEVlDF0jz-275" value="Category Table" style="shape=table;startSize=30;container=1;collapsible=1;childLayout=tableLayout;fixedRows=1;rowLines=0;fontStyle=1;align=center;resizeLast=1;" vertex="1" parent="1">
          <mxGeometry x="605" y="490" width="180" height="100" as="geometry" />
        </mxCell>
        <mxCell id="NFMaD7DtVsPuEVlDF0jz-276" value="" style="shape=partialRectangle;collapsible=0;dropTarget=0;pointerEvents=0;fillColor=none;top=0;left=0;bottom=1;right=0;points=[[0,0.5],[1,0.5]];portConstraint=eastwest;" vertex="1" parent="NFMaD7DtVsPuEVlDF0jz-275">
          <mxGeometry y="30" width="180" height="30" as="geometry" />
        </mxCell>
        <mxCell id="NFMaD7DtVsPuEVlDF0jz-277" value="PK" style="shape=partialRectangle;connectable=0;fillColor=none;top=0;left=0;bottom=0;right=0;fontStyle=1;overflow=hidden;" vertex="1" parent="NFMaD7DtVsPuEVlDF0jz-276">
          <mxGeometry width="30" height="30" as="geometry" />
        </mxCell>
        <mxCell id="NFMaD7DtVsPuEVlDF0jz-278" value="CategoryID" style="shape=partialRectangle;connectable=0;fillColor=none;top=0;left=0;bottom=0;right=0;align=left;spacingLeft=6;fontStyle=5;overflow=hidden;" vertex="1" parent="NFMaD7DtVsPuEVlDF0jz-276">
          <mxGeometry x="30" width="150" height="30" as="geometry" />
        </mxCell>
        <mxCell id="NFMaD7DtVsPuEVlDF0jz-279" value="" style="shape=partialRectangle;collapsible=0;dropTarget=0;pointerEvents=0;fillColor=none;top=0;left=0;bottom=0;right=0;points=[[0,0.5],[1,0.5]];portConstraint=eastwest;" vertex="1" parent="NFMaD7DtVsPuEVlDF0jz-275">
          <mxGeometry y="60" width="180" height="30" as="geometry" />
        </mxCell>
        <mxCell id="NFMaD7DtVsPuEVlDF0jz-280" value="" style="shape=partialRectangle;connectable=0;fillColor=none;top=0;left=0;bottom=0;right=0;editable=1;overflow=hidden;" vertex="1" parent="NFMaD7DtVsPuEVlDF0jz-279">
          <mxGeometry width="30" height="30" as="geometry" />
        </mxCell>
        <mxCell id="NFMaD7DtVsPuEVlDF0jz-281" value="Category Description" style="shape=partialRectangle;connectable=0;fillColor=none;top=0;left=0;bottom=0;right=0;align=left;spacingLeft=6;overflow=hidden;" vertex="1" parent="NFMaD7DtVsPuEVlDF0jz-279">
          <mxGeometry x="30" width="150" height="30" as="geometry" />
        </mxCell>
        <mxCell id="NFMaD7DtVsPuEVlDF0jz-282" value="Payments (?)" style="shape=table;startSize=30;container=1;collapsible=1;childLayout=tableLayout;fixedRows=1;rowLines=0;fontStyle=1;align=center;resizeLast=1;" vertex="1" parent="1">
          <mxGeometry x="605" y="650" width="180" height="100" as="geometry" />
        </mxCell>
        <mxCell id="NFMaD7DtVsPuEVlDF0jz-283" value="" style="shape=partialRectangle;collapsible=0;dropTarget=0;pointerEvents=0;fillColor=none;top=0;left=0;bottom=1;right=0;points=[[0,0.5],[1,0.5]];portConstraint=eastwest;" vertex="1" parent="NFMaD7DtVsPuEVlDF0jz-282">
          <mxGeometry y="30" width="180" height="30" as="geometry" />
        </mxCell>
        <mxCell id="NFMaD7DtVsPuEVlDF0jz-284" value="PK" style="shape=partialRectangle;connectable=0;fillColor=none;top=0;left=0;bottom=0;right=0;fontStyle=1;overflow=hidden;" vertex="1" parent="NFMaD7DtVsPuEVlDF0jz-283">
          <mxGeometry width="30" height="30" as="geometry" />
        </mxCell>
        <mxCell id="NFMaD7DtVsPuEVlDF0jz-285" value="UniqueID" style="shape=partialRectangle;connectable=0;fillColor=none;top=0;left=0;bottom=0;right=0;align=left;spacingLeft=6;fontStyle=5;overflow=hidden;" vertex="1" parent="NFMaD7DtVsPuEVlDF0jz-283">
          <mxGeometry x="30" width="150" height="30" as="geometry" />
        </mxCell>
        <mxCell id="NFMaD7DtVsPuEVlDF0jz-286" value="" style="shape=partialRectangle;collapsible=0;dropTarget=0;pointerEvents=0;fillColor=none;top=0;left=0;bottom=0;right=0;points=[[0,0.5],[1,0.5]];portConstraint=eastwest;" vertex="1" parent="NFMaD7DtVsPuEVlDF0jz-282">
          <mxGeometry y="60" width="180" height="30" as="geometry" />
        </mxCell>
        <mxCell id="NFMaD7DtVsPuEVlDF0jz-287" value="FK" style="shape=partialRectangle;connectable=0;fillColor=none;top=0;left=0;bottom=0;right=0;editable=1;overflow=hidden;" vertex="1" parent="NFMaD7DtVsPuEVlDF0jz-286">
          <mxGeometry width="30" height="30" as="geometry" />
        </mxCell>
        <mxCell id="NFMaD7DtVsPuEVlDF0jz-288" value="OrderNumber" style="shape=partialRectangle;connectable=0;fillColor=none;top=0;left=0;bottom=0;right=0;align=left;spacingLeft=6;overflow=hidden;" vertex="1" parent="NFMaD7DtVsPuEVlDF0jz-286">
          <mxGeometry x="30" width="150" height="30" as="geometry" />
        </mxCell>
        <mxCell id="NFMaD7DtVsPuEVlDF0jz-289" value="SupplierProducts" style="shape=table;startSize=30;container=1;collapsible=1;childLayout=tableLayout;fixedRows=1;rowLines=0;fontStyle=1;align=center;resizeLast=1;" vertex="1" parent="1">
          <mxGeometry x="585" y="280" width="180" height="160" as="geometry" />
        </mxCell>
        <mxCell id="NFMaD7DtVsPuEVlDF0jz-290" value="" style="shape=partialRectangle;collapsible=0;dropTarget=0;pointerEvents=0;fillColor=none;top=0;left=0;bottom=0;right=0;points=[[0,0.5],[1,0.5]];portConstraint=eastwest;" vertex="1" parent="NFMaD7DtVsPuEVlDF0jz-289">
          <mxGeometry y="30" width="180" height="30" as="geometry" />
        </mxCell>
        <mxCell id="NFMaD7DtVsPuEVlDF0jz-291" value="PK,FK1" style="shape=partialRectangle;connectable=0;fillColor=none;top=0;left=0;bottom=0;right=0;fontStyle=1;overflow=hidden;" vertex="1" parent="NFMaD7DtVsPuEVlDF0jz-290">
          <mxGeometry width="60" height="30" as="geometry" />
        </mxCell>
        <mxCell id="NFMaD7DtVsPuEVlDF0jz-292" value="SupplierId" style="shape=partialRectangle;connectable=0;fillColor=none;top=0;left=0;bottom=0;right=0;align=left;spacingLeft=6;fontStyle=5;overflow=hidden;" vertex="1" parent="NFMaD7DtVsPuEVlDF0jz-290">
          <mxGeometry x="60" width="120" height="30" as="geometry" />
        </mxCell>
        <mxCell id="NFMaD7DtVsPuEVlDF0jz-293" value="" style="shape=partialRectangle;collapsible=0;dropTarget=0;pointerEvents=0;fillColor=none;top=0;left=0;bottom=1;right=0;points=[[0,0.5],[1,0.5]];portConstraint=eastwest;" vertex="1" parent="NFMaD7DtVsPuEVlDF0jz-289">
          <mxGeometry y="60" width="180" height="30" as="geometry" />
        </mxCell>
        <mxCell id="NFMaD7DtVsPuEVlDF0jz-294" value="PK,FK2" style="shape=partialRectangle;connectable=0;fillColor=none;top=0;left=0;bottom=0;right=0;fontStyle=1;overflow=hidden;" vertex="1" parent="NFMaD7DtVsPuEVlDF0jz-293">
          <mxGeometry width="60" height="30" as="geometry" />
        </mxCell>
        <mxCell id="NFMaD7DtVsPuEVlDF0jz-295" value="ProductId" style="shape=partialRectangle;connectable=0;fillColor=none;top=0;left=0;bottom=0;right=0;align=left;spacingLeft=6;fontStyle=5;overflow=hidden;" vertex="1" parent="NFMaD7DtVsPuEVlDF0jz-293">
          <mxGeometry x="60" width="120" height="30" as="geometry" />
        </mxCell>
        <mxCell id="NFMaD7DtVsPuEVlDF0jz-296" value="" style="shape=partialRectangle;collapsible=0;dropTarget=0;pointerEvents=0;fillColor=none;top=0;left=0;bottom=0;right=0;points=[[0,0.5],[1,0.5]];portConstraint=eastwest;" vertex="1" parent="NFMaD7DtVsPuEVlDF0jz-289">
          <mxGeometry y="90" width="180" height="30" as="geometry" />
        </mxCell>
        <mxCell id="NFMaD7DtVsPuEVlDF0jz-297" value="" style="shape=partialRectangle;connectable=0;fillColor=none;top=0;left=0;bottom=0;right=0;editable=1;overflow=hidden;" vertex="1" parent="NFMaD7DtVsPuEVlDF0jz-296">
          <mxGeometry width="60" height="30" as="geometry" />
        </mxCell>
        <mxCell id="NFMaD7DtVsPuEVlDF0jz-298" value="SupplierPrice" style="shape=partialRectangle;connectable=0;fillColor=none;top=0;left=0;bottom=0;right=0;align=left;spacingLeft=6;overflow=hidden;" vertex="1" parent="NFMaD7DtVsPuEVlDF0jz-296">
          <mxGeometry x="60" width="120" height="30" as="geometry" />
        </mxCell>
        <mxCell id="NFMaD7DtVsPuEVlDF0jz-299" value="" style="shape=partialRectangle;collapsible=0;dropTarget=0;pointerEvents=0;fillColor=none;top=0;left=0;bottom=0;right=0;points=[[0,0.5],[1,0.5]];portConstraint=eastwest;" vertex="1" parent="NFMaD7DtVsPuEVlDF0jz-289">
          <mxGeometry y="120" width="180" height="30" as="geometry" />
        </mxCell>
        <mxCell id="NFMaD7DtVsPuEVlDF0jz-300" value="" style="shape=partialRectangle;connectable=0;fillColor=none;top=0;left=0;bottom=0;right=0;editable=1;overflow=hidden;" vertex="1" parent="NFMaD7DtVsPuEVlDF0jz-299">
          <mxGeometry width="60" height="30" as="geometry" />
        </mxCell>
        <mxCell id="NFMaD7DtVsPuEVlDF0jz-301" value="Row 4" style="shape=partialRectangle;connectable=0;fillColor=none;top=0;left=0;bottom=0;right=0;align=left;spacingLeft=6;overflow=hidden;" vertex="1" parent="NFMaD7DtVsPuEVlDF0jz-299">
          <mxGeometry x="60" width="120" height="30" as="geometry" />
        </mxCell>
        <mxCell id="NFMaD7DtVsPuEVlDF0jz-302" value="Shopping Cart" style="shape=table;startSize=30;container=1;collapsible=1;childLayout=tableLayout;fixedRows=1;rowLines=0;fontStyle=1;align=center;resizeLast=1;" vertex="1" parent="1">
          <mxGeometry x="45" y="390" width="180" height="130" as="geometry" />
        </mxCell>
        <mxCell id="NFMaD7DtVsPuEVlDF0jz-303" value="" style="shape=partialRectangle;collapsible=0;dropTarget=0;pointerEvents=0;fillColor=none;top=0;left=0;bottom=0;right=0;points=[[0,0.5],[1,0.5]];portConstraint=eastwest;" vertex="1" parent="NFMaD7DtVsPuEVlDF0jz-302">
          <mxGeometry y="30" width="180" height="30" as="geometry" />
        </mxCell>
        <mxCell id="NFMaD7DtVsPuEVlDF0jz-304" value="PK,FK1" style="shape=partialRectangle;connectable=0;fillColor=none;top=0;left=0;bottom=0;right=0;fontStyle=1;overflow=hidden;" vertex="1" parent="NFMaD7DtVsPuEVlDF0jz-303">
          <mxGeometry width="60" height="30" as="geometry" />
        </mxCell>
        <mxCell id="NFMaD7DtVsPuEVlDF0jz-305" value="CustomerId" style="shape=partialRectangle;connectable=0;fillColor=none;top=0;left=0;bottom=0;right=0;align=left;spacingLeft=6;fontStyle=5;overflow=hidden;" vertex="1" parent="NFMaD7DtVsPuEVlDF0jz-303">
          <mxGeometry x="60" width="120" height="30" as="geometry" />
        </mxCell>
        <mxCell id="NFMaD7DtVsPuEVlDF0jz-306" value="" style="shape=partialRectangle;collapsible=0;dropTarget=0;pointerEvents=0;fillColor=none;top=0;left=0;bottom=1;right=0;points=[[0,0.5],[1,0.5]];portConstraint=eastwest;" vertex="1" parent="NFMaD7DtVsPuEVlDF0jz-302">
          <mxGeometry y="60" width="180" height="30" as="geometry" />
        </mxCell>
        <mxCell id="NFMaD7DtVsPuEVlDF0jz-307" value="PK,FK2" style="shape=partialRectangle;connectable=0;fillColor=none;top=0;left=0;bottom=0;right=0;fontStyle=1;overflow=hidden;" vertex="1" parent="NFMaD7DtVsPuEVlDF0jz-306">
          <mxGeometry width="60" height="30" as="geometry" />
        </mxCell>
        <mxCell id="NFMaD7DtVsPuEVlDF0jz-308" value="ProductId" style="shape=partialRectangle;connectable=0;fillColor=none;top=0;left=0;bottom=0;right=0;align=left;spacingLeft=6;fontStyle=5;overflow=hidden;" vertex="1" parent="NFMaD7DtVsPuEVlDF0jz-306">
          <mxGeometry x="60" width="120" height="30" as="geometry" />
        </mxCell>
        <mxCell id="NFMaD7DtVsPuEVlDF0jz-309" value="" style="shape=partialRectangle;collapsible=0;dropTarget=0;pointerEvents=0;fillColor=none;top=0;left=0;bottom=0;right=0;points=[[0,0.5],[1,0.5]];portConstraint=eastwest;" vertex="1" parent="NFMaD7DtVsPuEVlDF0jz-302">
          <mxGeometry y="90" width="180" height="30" as="geometry" />
        </mxCell>
        <mxCell id="NFMaD7DtVsPuEVlDF0jz-310" value="" style="shape=partialRectangle;connectable=0;fillColor=none;top=0;left=0;bottom=0;right=0;editable=1;overflow=hidden;" vertex="1" parent="NFMaD7DtVsPuEVlDF0jz-309">
          <mxGeometry width="60" height="30" as="geometry" />
        </mxCell>
        <mxCell id="NFMaD7DtVsPuEVlDF0jz-311" value="Quantity" style="shape=partialRectangle;connectable=0;fillColor=none;top=0;left=0;bottom=0;right=0;align=left;spacingLeft=6;overflow=hidden;" vertex="1" parent="NFMaD7DtVsPuEVlDF0jz-309">
          <mxGeometry x="60" width="120" height="30" as="geometry" />
        </mxCell>
        <mxCell id="NFMaD7DtVsPuEVlDF0jz-312" value="ProductReview" style="shape=table;startSize=30;container=1;collapsible=1;childLayout=tableLayout;fixedRows=1;rowLines=0;fontStyle=1;align=center;resizeLast=1;" vertex="1" parent="1">
          <mxGeometry x="415" y="840" width="180" height="160" as="geometry" />
        </mxCell>
        <mxCell id="NFMaD7DtVsPuEVlDF0jz-313" value="" style="shape=partialRectangle;collapsible=0;dropTarget=0;pointerEvents=0;fillColor=none;top=0;left=0;bottom=0;right=0;points=[[0,0.5],[1,0.5]];portConstraint=eastwest;" vertex="1" parent="NFMaD7DtVsPuEVlDF0jz-312">
          <mxGeometry y="30" width="180" height="30" as="geometry" />
        </mxCell>
        <mxCell id="NFMaD7DtVsPuEVlDF0jz-314" value="PK,FK1" style="shape=partialRectangle;connectable=0;fillColor=none;top=0;left=0;bottom=0;right=0;fontStyle=1;overflow=hidden;" vertex="1" parent="NFMaD7DtVsPuEVlDF0jz-313">
          <mxGeometry width="60" height="30" as="geometry" />
        </mxCell>
        <mxCell id="NFMaD7DtVsPuEVlDF0jz-315" value="ProductId" style="shape=partialRectangle;connectable=0;fillColor=none;top=0;left=0;bottom=0;right=0;align=left;spacingLeft=6;fontStyle=5;overflow=hidden;" vertex="1" parent="NFMaD7DtVsPuEVlDF0jz-313">
          <mxGeometry x="60" width="120" height="30" as="geometry" />
        </mxCell>
        <mxCell id="NFMaD7DtVsPuEVlDF0jz-316" value="" style="shape=partialRectangle;collapsible=0;dropTarget=0;pointerEvents=0;fillColor=none;top=0;left=0;bottom=1;right=0;points=[[0,0.5],[1,0.5]];portConstraint=eastwest;" vertex="1" parent="NFMaD7DtVsPuEVlDF0jz-312">
          <mxGeometry y="60" width="180" height="30" as="geometry" />
        </mxCell>
        <mxCell id="NFMaD7DtVsPuEVlDF0jz-317" value="PK,FK2" style="shape=partialRectangle;connectable=0;fillColor=none;top=0;left=0;bottom=0;right=0;fontStyle=1;overflow=hidden;" vertex="1" parent="NFMaD7DtVsPuEVlDF0jz-316">
          <mxGeometry width="60" height="30" as="geometry" />
        </mxCell>
        <mxCell id="NFMaD7DtVsPuEVlDF0jz-318" value="CustomerId" style="shape=partialRectangle;connectable=0;fillColor=none;top=0;left=0;bottom=0;right=0;align=left;spacingLeft=6;fontStyle=5;overflow=hidden;" vertex="1" parent="NFMaD7DtVsPuEVlDF0jz-316">
          <mxGeometry x="60" width="120" height="30" as="geometry" />
        </mxCell>
        <mxCell id="NFMaD7DtVsPuEVlDF0jz-319" value="" style="shape=partialRectangle;collapsible=0;dropTarget=0;pointerEvents=0;fillColor=none;top=0;left=0;bottom=0;right=0;points=[[0,0.5],[1,0.5]];portConstraint=eastwest;" vertex="1" parent="NFMaD7DtVsPuEVlDF0jz-312">
          <mxGeometry y="90" width="180" height="30" as="geometry" />
        </mxCell>
        <mxCell id="NFMaD7DtVsPuEVlDF0jz-320" value="" style="shape=partialRectangle;connectable=0;fillColor=none;top=0;left=0;bottom=0;right=0;editable=1;overflow=hidden;" vertex="1" parent="NFMaD7DtVsPuEVlDF0jz-319">
          <mxGeometry width="60" height="30" as="geometry" />
        </mxCell>
        <mxCell id="NFMaD7DtVsPuEVlDF0jz-321" value="ReviewText" style="shape=partialRectangle;connectable=0;fillColor=none;top=0;left=0;bottom=0;right=0;align=left;spacingLeft=6;overflow=hidden;" vertex="1" parent="NFMaD7DtVsPuEVlDF0jz-319">
          <mxGeometry x="60" width="120" height="30" as="geometry" />
        </mxCell>
        <mxCell id="NFMaD7DtVsPuEVlDF0jz-322" value="" style="shape=partialRectangle;collapsible=0;dropTarget=0;pointerEvents=0;fillColor=none;top=0;left=0;bottom=0;right=0;points=[[0,0.5],[1,0.5]];portConstraint=eastwest;" vertex="1" parent="NFMaD7DtVsPuEVlDF0jz-312">
          <mxGeometry y="120" width="180" height="30" as="geometry" />
        </mxCell>
        <mxCell id="NFMaD7DtVsPuEVlDF0jz-323" value="" style="shape=partialRectangle;connectable=0;fillColor=none;top=0;left=0;bottom=0;right=0;editable=1;overflow=hidden;" vertex="1" parent="NFMaD7DtVsPuEVlDF0jz-322">
          <mxGeometry width="60" height="30" as="geometry" />
        </mxCell>
        <mxCell id="NFMaD7DtVsPuEVlDF0jz-324" value="ReviewRating" style="shape=partialRectangle;connectable=0;fillColor=none;top=0;left=0;bottom=0;right=0;align=left;spacingLeft=6;overflow=hidden;" vertex="1" parent="NFMaD7DtVsPuEVlDF0jz-322">
          <mxGeometry x="60" width="120" height="30" as="geometry" />
        </mxCell>
        <mxCell id="NFMaD7DtVsPuEVlDF0jz-325" value="UserAppRoles" style="shape=table;startSize=30;container=1;collapsible=1;childLayout=tableLayout;fixedRows=1;rowLines=0;fontStyle=1;align=center;resizeLast=1;" vertex="1" parent="1">
          <mxGeometry x="355" y="80" width="180" height="160" as="geometry" />
        </mxCell>
        <mxCell id="NFMaD7DtVsPuEVlDF0jz-326" value="" style="shape=partialRectangle;collapsible=0;dropTarget=0;pointerEvents=0;fillColor=none;top=0;left=0;bottom=0;right=0;points=[[0,0.5],[1,0.5]];portConstraint=eastwest;" vertex="1" parent="NFMaD7DtVsPuEVlDF0jz-325">
          <mxGeometry y="30" width="180" height="30" as="geometry" />
        </mxCell>
        <mxCell id="NFMaD7DtVsPuEVlDF0jz-327" value="PK,FK1" style="shape=partialRectangle;connectable=0;fillColor=none;top=0;left=0;bottom=0;right=0;fontStyle=1;overflow=hidden;" vertex="1" parent="NFMaD7DtVsPuEVlDF0jz-326">
          <mxGeometry width="60" height="30" as="geometry" />
        </mxCell>
        <mxCell id="NFMaD7DtVsPuEVlDF0jz-328" value="UserId" style="shape=partialRectangle;connectable=0;fillColor=none;top=0;left=0;bottom=0;right=0;align=left;spacingLeft=6;fontStyle=5;overflow=hidden;" vertex="1" parent="NFMaD7DtVsPuEVlDF0jz-326">
          <mxGeometry x="60" width="120" height="30" as="geometry" />
        </mxCell>
        <mxCell id="NFMaD7DtVsPuEVlDF0jz-329" value="" style="shape=partialRectangle;collapsible=0;dropTarget=0;pointerEvents=0;fillColor=none;top=0;left=0;bottom=1;right=0;points=[[0,0.5],[1,0.5]];portConstraint=eastwest;" vertex="1" parent="NFMaD7DtVsPuEVlDF0jz-325">
          <mxGeometry y="60" width="180" height="30" as="geometry" />
        </mxCell>
        <mxCell id="NFMaD7DtVsPuEVlDF0jz-330" value="PK,FK2" style="shape=partialRectangle;connectable=0;fillColor=none;top=0;left=0;bottom=0;right=0;fontStyle=1;overflow=hidden;" vertex="1" parent="NFMaD7DtVsPuEVlDF0jz-329">
          <mxGeometry width="60" height="30" as="geometry" />
        </mxCell>
        <mxCell id="NFMaD7DtVsPuEVlDF0jz-331" value="RoleId" style="shape=partialRectangle;connectable=0;fillColor=none;top=0;left=0;bottom=0;right=0;align=left;spacingLeft=6;fontStyle=5;overflow=hidden;" vertex="1" parent="NFMaD7DtVsPuEVlDF0jz-329">
          <mxGeometry x="60" width="120" height="30" as="geometry" />
        </mxCell>
        <mxCell id="NFMaD7DtVsPuEVlDF0jz-332" value="" style="shape=partialRectangle;collapsible=0;dropTarget=0;pointerEvents=0;fillColor=none;top=0;left=0;bottom=0;right=0;points=[[0,0.5],[1,0.5]];portConstraint=eastwest;" vertex="1" parent="NFMaD7DtVsPuEVlDF0jz-325">
          <mxGeometry y="90" width="180" height="30" as="geometry" />
        </mxCell>
        <mxCell id="NFMaD7DtVsPuEVlDF0jz-333" value="" style="shape=partialRectangle;connectable=0;fillColor=none;top=0;left=0;bottom=0;right=0;editable=1;overflow=hidden;" vertex="1" parent="NFMaD7DtVsPuEVlDF0jz-332">
          <mxGeometry width="60" height="30" as="geometry" />
        </mxCell>
        <mxCell id="NFMaD7DtVsPuEVlDF0jz-334" value="Row 3" style="shape=partialRectangle;connectable=0;fillColor=none;top=0;left=0;bottom=0;right=0;align=left;spacingLeft=6;overflow=hidden;" vertex="1" parent="NFMaD7DtVsPuEVlDF0jz-332">
          <mxGeometry x="60" width="120" height="30" as="geometry" />
        </mxCell>
        <mxCell id="NFMaD7DtVsPuEVlDF0jz-335" value="" style="shape=partialRectangle;collapsible=0;dropTarget=0;pointerEvents=0;fillColor=none;top=0;left=0;bottom=0;right=0;points=[[0,0.5],[1,0.5]];portConstraint=eastwest;" vertex="1" parent="NFMaD7DtVsPuEVlDF0jz-325">
          <mxGeometry y="120" width="180" height="30" as="geometry" />
        </mxCell>
        <mxCell id="NFMaD7DtVsPuEVlDF0jz-336" value="" style="shape=partialRectangle;connectable=0;fillColor=none;top=0;left=0;bottom=0;right=0;editable=1;overflow=hidden;" vertex="1" parent="NFMaD7DtVsPuEVlDF0jz-335">
          <mxGeometry width="60" height="30" as="geometry" />
        </mxCell>
        <mxCell id="NFMaD7DtVsPuEVlDF0jz-337" value="Row 4" style="shape=partialRectangle;connectable=0;fillColor=none;top=0;left=0;bottom=0;right=0;align=left;spacingLeft=6;overflow=hidden;" vertex="1" parent="NFMaD7DtVsPuEVlDF0jz-335">
          <mxGeometry x="60" width="120" height="30" as="geometry" />
        </mxCell>
        <mxCell id="NFMaD7DtVsPuEVlDF0jz-338" value="AppRoles" style="shape=table;startSize=30;container=1;collapsible=1;childLayout=tableLayout;fixedRows=1;rowLines=0;fontStyle=1;align=center;resizeLast=1;" vertex="1" parent="1">
          <mxGeometry x="635" y="140" width="180" height="110" as="geometry" />
        </mxCell>
        <mxCell id="NFMaD7DtVsPuEVlDF0jz-339" value="" style="shape=partialRectangle;collapsible=0;dropTarget=0;pointerEvents=0;fillColor=none;top=0;left=0;bottom=1;right=0;points=[[0,0.5],[1,0.5]];portConstraint=eastwest;" vertex="1" parent="NFMaD7DtVsPuEVlDF0jz-338">
          <mxGeometry y="30" width="180" height="30" as="geometry" />
        </mxCell>
        <mxCell id="NFMaD7DtVsPuEVlDF0jz-340" value="PK" style="shape=partialRectangle;connectable=0;fillColor=none;top=0;left=0;bottom=0;right=0;fontStyle=1;overflow=hidden;" vertex="1" parent="NFMaD7DtVsPuEVlDF0jz-339">
          <mxGeometry width="30" height="30" as="geometry" />
        </mxCell>
        <mxCell id="NFMaD7DtVsPuEVlDF0jz-341" value="RoleId" style="shape=partialRectangle;connectable=0;fillColor=none;top=0;left=0;bottom=0;right=0;align=left;spacingLeft=6;fontStyle=5;overflow=hidden;" vertex="1" parent="NFMaD7DtVsPuEVlDF0jz-339">
          <mxGeometry x="30" width="150" height="30" as="geometry" />
        </mxCell>
        <mxCell id="NFMaD7DtVsPuEVlDF0jz-342" value="" style="shape=partialRectangle;collapsible=0;dropTarget=0;pointerEvents=0;fillColor=none;top=0;left=0;bottom=0;right=0;points=[[0,0.5],[1,0.5]];portConstraint=eastwest;" vertex="1" parent="NFMaD7DtVsPuEVlDF0jz-338">
          <mxGeometry y="60" width="180" height="40" as="geometry" />
        </mxCell>
        <mxCell id="NFMaD7DtVsPuEVlDF0jz-343" value="" style="shape=partialRectangle;connectable=0;fillColor=none;top=0;left=0;bottom=0;right=0;editable=1;overflow=hidden;" vertex="1" parent="NFMaD7DtVsPuEVlDF0jz-342">
          <mxGeometry width="30" height="40" as="geometry" />
        </mxCell>
        <mxCell id="NFMaD7DtVsPuEVlDF0jz-344" value="RoleName" style="shape=partialRectangle;connectable=0;fillColor=none;top=0;left=0;bottom=0;right=0;align=left;spacingLeft=6;overflow=hidden;" vertex="1" parent="NFMaD7DtVsPuEVlDF0jz-342">
          <mxGeometry x="30" width="150" height="40" as="geometry" />
        </mxCell>
        <mxCell id="NFMaD7DtVsPuEVlDF0jz-345" value="" style="edgeStyle=entityRelationEdgeStyle;fontSize=12;html=1;endArrow=ERoneToMany;exitX=1;exitY=0.5;exitDx=0;exitDy=0;entryX=0;entryY=0.5;entryDx=0;entryDy=0;" edge="1" parent="1" source="NFMaD7DtVsPuEVlDF0jz-263" target="NFMaD7DtVsPuEVlDF0jz-326">
          <mxGeometry width="100" height="100" relative="1" as="geometry">
            <mxPoint x="34" y="45" as="sourcePoint" />
            <mxPoint x="34" y="245" as="targetPoint" />
          </mxGeometry>
        </mxCell>
        <mxCell id="NFMaD7DtVsPuEVlDF0jz-346" value="" style="edgeStyle=entityRelationEdgeStyle;fontSize=12;html=1;endArrow=ERoneToMany;exitX=0;exitY=0.5;exitDx=0;exitDy=0;entryX=1;entryY=0.5;entryDx=0;entryDy=0;" edge="1" parent="1" source="NFMaD7DtVsPuEVlDF0jz-339" target="NFMaD7DtVsPuEVlDF0jz-329">
          <mxGeometry width="100" height="100" relative="1" as="geometry">
            <mxPoint x="285" y="290" as="sourcePoint" />
            <mxPoint x="385" y="190" as="targetPoint" />
          </mxGeometry>
        </mxCell>
        <mxCell id="NFMaD7DtVsPuEVlDF0jz-347" value="" style="edgeStyle=entityRelationEdgeStyle;fontSize=12;html=1;endArrow=ERoneToMany;" edge="1" parent="1" source="NFMaD7DtVsPuEVlDF0jz-263" target="NFMaD7DtVsPuEVlDF0jz-303">
          <mxGeometry width="100" height="100" relative="1" as="geometry">
            <mxPoint x="315" y="400" as="sourcePoint" />
            <mxPoint x="415" y="300" as="targetPoint" />
          </mxGeometry>
        </mxCell>
        <mxCell id="NFMaD7DtVsPuEVlDF0jz-348" value="" style="edgeStyle=entityRelationEdgeStyle;fontSize=12;html=1;endArrow=ERoneToMany;exitX=1;exitY=0.5;exitDx=0;exitDy=0;entryX=0;entryY=0.5;entryDx=0;entryDy=0;" edge="1" parent="1" source="NFMaD7DtVsPuEVlDF0jz-263" target="NFMaD7DtVsPuEVlDF0jz-290">
          <mxGeometry width="100" height="100" relative="1" as="geometry">
            <mxPoint x="315" y="500" as="sourcePoint" />
            <mxPoint x="415" y="400" as="targetPoint" />
          </mxGeometry>
        </mxCell>
        <mxCell id="NFMaD7DtVsPuEVlDF0jz-349" value="" style="edgeStyle=entityRelationEdgeStyle;fontSize=12;html=1;endArrow=ERoneToMany;exitX=1;exitY=0.5;exitDx=0;exitDy=0;entryX=0;entryY=0.5;entryDx=0;entryDy=0;" edge="1" parent="1" source="NFMaD7DtVsPuEVlDF0jz-238" target="NFMaD7DtVsPuEVlDF0jz-293">
          <mxGeometry width="100" height="100" relative="1" as="geometry">
            <mxPoint x="315" y="500" as="sourcePoint" />
            <mxPoint x="415" y="400" as="targetPoint" />
          </mxGeometry>
        </mxCell>
        <mxCell id="NFMaD7DtVsPuEVlDF0jz-350" value="" style="edgeStyle=entityRelationEdgeStyle;fontSize=12;html=1;endArrow=ERmandOne;exitX=0;exitY=0.5;exitDx=0;exitDy=0;entryX=1;entryY=0.5;entryDx=0;entryDy=0;" edge="1" parent="1" source="NFMaD7DtVsPuEVlDF0jz-276" target="NFMaD7DtVsPuEVlDF0jz-244">
          <mxGeometry width="100" height="100" relative="1" as="geometry">
            <mxPoint x="575" y="700" as="sourcePoint" />
            <mxPoint x="675" y="600" as="targetPoint" />
          </mxGeometry>
        </mxCell>
        <mxCell id="NFMaD7DtVsPuEVlDF0jz-351" value="" style="edgeStyle=entityRelationEdgeStyle;fontSize=12;html=1;endArrow=ERoneToMany;entryX=0;entryY=0.5;entryDx=0;entryDy=0;exitX=1;exitY=0.5;exitDx=0;exitDy=0;" edge="1" parent="1" source="NFMaD7DtVsPuEVlDF0jz-263" target="NFMaD7DtVsPuEVlDF0jz-316">
          <mxGeometry width="100" height="100" relative="1" as="geometry">
            <mxPoint x="245" y="140" as="sourcePoint" />
            <mxPoint x="285" y="620" as="targetPoint" />
          </mxGeometry>
        </mxCell>
        <mxCell id="NFMaD7DtVsPuEVlDF0jz-352" value="" style="edgeStyle=entityRelationEdgeStyle;fontSize=12;html=1;endArrow=ERoneToMany;exitX=0;exitY=0.5;exitDx=0;exitDy=0;entryX=0;entryY=0.5;entryDx=0;entryDy=0;" edge="1" parent="1" source="NFMaD7DtVsPuEVlDF0jz-238" target="NFMaD7DtVsPuEVlDF0jz-313">
          <mxGeometry width="100" height="100" relative="1" as="geometry">
            <mxPoint x="315" y="700" as="sourcePoint" />
            <mxPoint x="415" y="600" as="targetPoint" />
          </mxGeometry>
        </mxCell>
        <mxCell id="NFMaD7DtVsPuEVlDF0jz-353" value="" style="edgeStyle=entityRelationEdgeStyle;fontSize=12;html=1;endArrow=ERoneToMany;exitX=0;exitY=0.5;exitDx=0;exitDy=0;entryX=0;entryY=0.5;entryDx=0;entryDy=0;" edge="1" parent="1" source="NFMaD7DtVsPuEVlDF0jz-263" target="NFMaD7DtVsPuEVlDF0jz-361">
          <mxGeometry width="100" height="100" relative="1" as="geometry">
            <mxPoint x="5" y="390" as="sourcePoint" />
            <mxPoint x="30" y="725" as="targetPoint" />
          </mxGeometry>
        </mxCell>
        <mxCell id="NFMaD7DtVsPuEVlDF0jz-354" value="OrderHeader" style="shape=table;startSize=30;container=1;collapsible=1;childLayout=tableLayout;fixedRows=1;rowLines=0;fontStyle=1;align=center;resizeLast=1;" vertex="1" parent="1">
          <mxGeometry x="55" y="600" width="180" height="130" as="geometry" />
        </mxCell>
        <mxCell id="NFMaD7DtVsPuEVlDF0jz-355" value="" style="shape=partialRectangle;collapsible=0;dropTarget=0;pointerEvents=0;fillColor=none;top=0;left=0;bottom=1;right=0;points=[[0,0.5],[1,0.5]];portConstraint=eastwest;" vertex="1" parent="NFMaD7DtVsPuEVlDF0jz-354">
          <mxGeometry y="30" width="180" height="30" as="geometry" />
        </mxCell>
        <mxCell id="NFMaD7DtVsPuEVlDF0jz-356" value="PK" style="shape=partialRectangle;connectable=0;fillColor=none;top=0;left=0;bottom=0;right=0;fontStyle=1;overflow=hidden;" vertex="1" parent="NFMaD7DtVsPuEVlDF0jz-355">
          <mxGeometry width="30" height="30" as="geometry" />
        </mxCell>
        <mxCell id="NFMaD7DtVsPuEVlDF0jz-357" value="OrderNumber" style="shape=partialRectangle;connectable=0;fillColor=none;top=0;left=0;bottom=0;right=0;align=left;spacingLeft=6;fontStyle=5;overflow=hidden;" vertex="1" parent="NFMaD7DtVsPuEVlDF0jz-355">
          <mxGeometry x="30" width="150" height="30" as="geometry" />
        </mxCell>
        <mxCell id="NFMaD7DtVsPuEVlDF0jz-358" value="" style="shape=partialRectangle;collapsible=0;dropTarget=0;pointerEvents=0;fillColor=none;top=0;left=0;bottom=0;right=0;points=[[0,0.5],[1,0.5]];portConstraint=eastwest;" vertex="1" parent="NFMaD7DtVsPuEVlDF0jz-354">
          <mxGeometry y="60" width="180" height="30" as="geometry" />
        </mxCell>
        <mxCell id="NFMaD7DtVsPuEVlDF0jz-359" value="" style="shape=partialRectangle;connectable=0;fillColor=none;top=0;left=0;bottom=0;right=0;editable=1;overflow=hidden;" vertex="1" parent="NFMaD7DtVsPuEVlDF0jz-358">
          <mxGeometry width="30" height="30" as="geometry" />
        </mxCell>
        <mxCell id="NFMaD7DtVsPuEVlDF0jz-360" value="OrderDate" style="shape=partialRectangle;connectable=0;fillColor=none;top=0;left=0;bottom=0;right=0;align=left;spacingLeft=6;overflow=hidden;" vertex="1" parent="NFMaD7DtVsPuEVlDF0jz-358">
          <mxGeometry x="30" width="150" height="30" as="geometry" />
        </mxCell>
        <mxCell id="NFMaD7DtVsPuEVlDF0jz-361" value="" style="shape=partialRectangle;collapsible=0;dropTarget=0;pointerEvents=0;fillColor=none;top=0;left=0;bottom=0;right=0;points=[[0,0.5],[1,0.5]];portConstraint=eastwest;" vertex="1" parent="NFMaD7DtVsPuEVlDF0jz-354">
          <mxGeometry y="90" width="180" height="30" as="geometry" />
        </mxCell>
        <mxCell id="NFMaD7DtVsPuEVlDF0jz-362" value="FK" style="shape=partialRectangle;connectable=0;fillColor=none;top=0;left=0;bottom=0;right=0;editable=1;overflow=hidden;" vertex="1" parent="NFMaD7DtVsPuEVlDF0jz-361">
          <mxGeometry width="30" height="30" as="geometry" />
        </mxCell>
        <mxCell id="NFMaD7DtVsPuEVlDF0jz-363" value="CustomerId" style="shape=partialRectangle;connectable=0;fillColor=none;top=0;left=0;bottom=0;right=0;align=left;spacingLeft=6;overflow=hidden;" vertex="1" parent="NFMaD7DtVsPuEVlDF0jz-361">
          <mxGeometry x="30" width="150" height="30" as="geometry" />
        </mxCell>
        <mxCell id="NFMaD7DtVsPuEVlDF0jz-364" value="OrderDetail" style="shape=table;startSize=30;container=1;collapsible=1;childLayout=tableLayout;fixedRows=1;rowLines=0;fontStyle=1;align=center;resizeLast=1;" vertex="1" parent="1">
          <mxGeometry x="55" y="790" width="180" height="160" as="geometry" />
        </mxCell>
        <mxCell id="NFMaD7DtVsPuEVlDF0jz-365" value="" style="shape=partialRectangle;collapsible=0;dropTarget=0;pointerEvents=0;fillColor=none;top=0;left=0;bottom=0;right=0;points=[[0,0.5],[1,0.5]];portConstraint=eastwest;" vertex="1" parent="NFMaD7DtVsPuEVlDF0jz-364">
          <mxGeometry y="30" width="180" height="30" as="geometry" />
        </mxCell>
        <mxCell id="NFMaD7DtVsPuEVlDF0jz-366" value="PK,FK1" style="shape=partialRectangle;connectable=0;fillColor=none;top=0;left=0;bottom=0;right=0;fontStyle=1;overflow=hidden;" vertex="1" parent="NFMaD7DtVsPuEVlDF0jz-365">
          <mxGeometry width="60" height="30" as="geometry" />
        </mxCell>
        <mxCell id="NFMaD7DtVsPuEVlDF0jz-367" value="OrderNumber" style="shape=partialRectangle;connectable=0;fillColor=none;top=0;left=0;bottom=0;right=0;align=left;spacingLeft=6;fontStyle=5;overflow=hidden;" vertex="1" parent="NFMaD7DtVsPuEVlDF0jz-365">
          <mxGeometry x="60" width="120" height="30" as="geometry" />
        </mxCell>
        <mxCell id="NFMaD7DtVsPuEVlDF0jz-368" value="" style="shape=partialRectangle;collapsible=0;dropTarget=0;pointerEvents=0;fillColor=none;top=0;left=0;bottom=1;right=0;points=[[0,0.5],[1,0.5]];portConstraint=eastwest;" vertex="1" parent="NFMaD7DtVsPuEVlDF0jz-364">
          <mxGeometry y="60" width="180" height="30" as="geometry" />
        </mxCell>
        <mxCell id="NFMaD7DtVsPuEVlDF0jz-369" value="PK,FK2" style="shape=partialRectangle;connectable=0;fillColor=none;top=0;left=0;bottom=0;right=0;fontStyle=1;overflow=hidden;" vertex="1" parent="NFMaD7DtVsPuEVlDF0jz-368">
          <mxGeometry width="60" height="30" as="geometry" />
        </mxCell>
        <mxCell id="NFMaD7DtVsPuEVlDF0jz-370" value="ProductId" style="shape=partialRectangle;connectable=0;fillColor=none;top=0;left=0;bottom=0;right=0;align=left;spacingLeft=6;fontStyle=5;overflow=hidden;" vertex="1" parent="NFMaD7DtVsPuEVlDF0jz-368">
          <mxGeometry x="60" width="120" height="30" as="geometry" />
        </mxCell>
        <mxCell id="NFMaD7DtVsPuEVlDF0jz-371" value="" style="shape=partialRectangle;collapsible=0;dropTarget=0;pointerEvents=0;fillColor=none;top=0;left=0;bottom=0;right=0;points=[[0,0.5],[1,0.5]];portConstraint=eastwest;" vertex="1" parent="NFMaD7DtVsPuEVlDF0jz-364">
          <mxGeometry y="90" width="180" height="30" as="geometry" />
        </mxCell>
        <mxCell id="NFMaD7DtVsPuEVlDF0jz-372" value="" style="shape=partialRectangle;connectable=0;fillColor=none;top=0;left=0;bottom=0;right=0;editable=1;overflow=hidden;" vertex="1" parent="NFMaD7DtVsPuEVlDF0jz-371">
          <mxGeometry width="60" height="30" as="geometry" />
        </mxCell>
        <mxCell id="NFMaD7DtVsPuEVlDF0jz-373" value="Quantity" style="shape=partialRectangle;connectable=0;fillColor=none;top=0;left=0;bottom=0;right=0;align=left;spacingLeft=6;overflow=hidden;" vertex="1" parent="NFMaD7DtVsPuEVlDF0jz-371">
          <mxGeometry x="60" width="120" height="30" as="geometry" />
        </mxCell>
        <mxCell id="NFMaD7DtVsPuEVlDF0jz-374" value="" style="shape=partialRectangle;collapsible=0;dropTarget=0;pointerEvents=0;fillColor=none;top=0;left=0;bottom=0;right=0;points=[[0,0.5],[1,0.5]];portConstraint=eastwest;" vertex="1" parent="NFMaD7DtVsPuEVlDF0jz-364">
          <mxGeometry y="120" width="180" height="30" as="geometry" />
        </mxCell>
        <mxCell id="NFMaD7DtVsPuEVlDF0jz-375" value="" style="shape=partialRectangle;connectable=0;fillColor=none;top=0;left=0;bottom=0;right=0;editable=1;overflow=hidden;" vertex="1" parent="NFMaD7DtVsPuEVlDF0jz-374">
          <mxGeometry width="60" height="30" as="geometry" />
        </mxCell>
        <mxCell id="NFMaD7DtVsPuEVlDF0jz-376" value="Price" style="shape=partialRectangle;connectable=0;fillColor=none;top=0;left=0;bottom=0;right=0;align=left;spacingLeft=6;overflow=hidden;" vertex="1" parent="NFMaD7DtVsPuEVlDF0jz-374">
          <mxGeometry x="60" width="120" height="30" as="geometry" />
        </mxCell>
        <mxCell id="NFMaD7DtVsPuEVlDF0jz-377" value="" style="edgeStyle=entityRelationEdgeStyle;fontSize=12;html=1;endArrow=ERoneToMany;exitX=1;exitY=0.5;exitDx=0;exitDy=0;entryX=1;entryY=0.25;entryDx=0;entryDy=0;" edge="1" parent="1" source="NFMaD7DtVsPuEVlDF0jz-355" target="NFMaD7DtVsPuEVlDF0jz-364">
          <mxGeometry width="100" height="100" relative="1" as="geometry">
            <mxPoint x="315" y="800" as="sourcePoint" />
            <mxPoint x="415" y="700" as="targetPoint" />
          </mxGeometry>
        </mxCell>
        <mxCell id="NFMaD7DtVsPuEVlDF0jz-378" value="" style="edgeStyle=entityRelationEdgeStyle;fontSize=12;html=1;endArrow=ERoneToMany;exitX=0;exitY=0.5;exitDx=0;exitDy=0;entryX=1;entryY=0.5;entryDx=0;entryDy=0;" edge="1" parent="1" source="NFMaD7DtVsPuEVlDF0jz-238" target="NFMaD7DtVsPuEVlDF0jz-368">
          <mxGeometry width="100" height="100" relative="1" as="geometry">
            <mxPoint x="315" y="800" as="sourcePoint" />
            <mxPoint x="415" y="700" as="targetPoint" />
          </mxGeometry>
        </mxCell>
      </root>
    </mxGraphModel>
  </diagram>
</mxfile>
